<svg viewBox="0 0 19 19" height="19" width="19" xmlns="http://www.w3.org/2000/svg">
  <g transform="translate(-1471.5 -60.5)" data-name="Group 20905" id="Group_20905">
    <path stroke-width="1" stroke="#000" fill="currantColor" transform="translate(1472 62)" d="M13.625,2.789H12.1c0-.026,0-.472,0-1.315A3.336,3.336,0,0,0,8.75-1h.125A3.561,3.561,0,0,0,5.523,1.546c0,1,.028,1.005,0,1.243H4.375A3.3,3.3,0,0,0,1,5.987L0,13.8A3.3,3.3,0,0,0,3.375,17h11.25A3.3,3.3,0,0,0,18,13.8L17,5.987A3.3,3.3,0,0,0,13.625,2.789ZM8.875-.289H8.75a2.828,2.828,0,0,1,2.595,1.764V2.789H6.28c0-.013,0-.025,0-1.243A2.639,2.639,0,0,1,8.875-.289ZM17.25,13.8a2.562,2.562,0,0,1-2.625,2.487H3.375A2.562,2.562,0,0,1,.75,13.8l1-7.816A2.562,2.562,0,0,1,4.375,3.5h9.25A2.562,2.562,0,0,1,16.25,5.987Z" id="briefcase-blank"></path>
  </g>
</svg>
