<svg viewBox="0 0 21.5 20.835" height="20.835" width="21.5" xmlns="http://www.w3.org/2000/svg">
  <g transform="translate(-1.25 -1.585)" id="home">
    <path fill="currantColor" d="M19,22.42H5a3.751,3.751,0,0,1-3.75-3.75V10.23a3.756,3.756,0,0,1,1.6-3.07l7-4.9a3.762,3.762,0,0,1,4.3,0l7,4.9a3.756,3.756,0,0,1,1.6,3.07v8.44A3.751,3.751,0,0,1,19,22.42ZM12,3.08a2.268,2.268,0,0,0-1.29.41l-7,4.9a2.253,2.253,0,0,0-.96,1.84v8.44A2.253,2.253,0,0,0,5,20.92H19a2.253,2.253,0,0,0,2.25-2.25V10.23a2.253,2.253,0,0,0-.96-1.84l-7-4.9A2.257,2.257,0,0,0,12,3.09Z" data-name="Path 74861" id="Path_74861"></path>
    <path fill="currantColor" d="M16,22.42H8a.755.755,0,0,1-.75-.75v-5a4.75,4.75,0,0,1,9.5,0v5A.755.755,0,0,1,16,22.42Zm-7.25-1.5h6.5V16.67a3.25,3.25,0,0,0-6.5,0Z" data-name="Path 74862" id="Path_74862"></path>
  </g>
</svg>
