<svg xmlns="http://www.w3.org/2000/svg" width="50" height="49" viewBox="0 0 50 49">
  <g id="Group_21127" data-name="Group 21127" transform="translate(-1411 -1384)">
    <g id="Ellipse_3215" data-name="Ellipse 3215" transform="translate(1411 1384)" fill="#fff" stroke="#bbb" stroke-width="1.5">
      <ellipse cx="25" cy="24.5" rx="25" ry="24.5" stroke="none"/>
      <ellipse cx="25" cy="24.5" rx="24.25" ry="23.75" fill="none"/>
    </g>
    <g id="noun-cash-4311978" transform="translate(1424 1396)">
      <g id="Group_19828" data-name="Group 19828" transform="translate(0 0)">
        <path id="Path_74450" data-name="Path 74450" d="M48.22,12.8a3.833,3.833,0,1,0,3.82,3.846A3.824,3.824,0,0,0,48.22,12.8Zm1.936,3.428L48.194,18.19a.672.672,0,0,1-.471.183.631.631,0,0,1-.471-.183l-.968-.968a.666.666,0,0,1,.942-.942l.471.5,1.491-1.491a.663.663,0,0,1,.942,0A.642.642,0,0,1,50.156,16.228Z" transform="translate(-33.451 -10.288)" fill="#7d7d7d"/>
        <path id="Path_74451" data-name="Path 74451" d="M24.126,57.6,20.1,58.8v.314a2.585,2.585,0,0,1-2.067,2.329l-.183.052a27.281,27.281,0,0,1-4.6.523l-1.23.026a.778.778,0,0,1-.523-.209.752.752,0,0,1-.235-.523.731.731,0,0,1,.209-.523.752.752,0,0,1,.523-.235l1.308-.026a22.825,22.825,0,0,0,4.212-.471l.262-.052a1.112,1.112,0,0,0,.89-1.02,1.075,1.075,0,0,0-.288-.811,1.226,1.226,0,0,0-.759-.366l-6.489-.314a3.474,3.474,0,0,0-2.015.576L2.88,62.805A.837.837,0,0,0,2.8,64.061l3.454,3.48a.837.837,0,0,0,1.1.078l1.491-1.151a1.21,1.21,0,0,1,.837-.235l4.893.523a3.69,3.69,0,0,0,2.643-.733l8.059-6.149a1.3,1.3,0,0,0,.157-1.91A1.308,1.308,0,0,0,24.126,57.6Z" transform="translate(-2.554 -43.287)" fill="#df2e84"/>
        <path id="Path_74452" data-name="Path 74452" d="M39.548,3.2H21.6a1.106,1.106,0,0,0-1.1,1.1V14.791a1.106,1.106,0,0,0,1.1,1.1H39.548a1.106,1.106,0,0,0,1.1-1.1V4.3A1.106,1.106,0,0,0,39.548,3.2Zm-.445,9a2.681,2.681,0,0,0-2.119,2.119H24.189A2.681,2.681,0,0,0,22.07,12.2V6.863a2.681,2.681,0,0,0,2.119-2.119H36.983A2.681,2.681,0,0,0,39.1,6.863Z" transform="translate(-15.805 -3.2)" fill="#7d7d7d"/>
        <path id="Path_74453" data-name="Path 74453" d="M32.673,23.4a1.073,1.073,0,1,0,1.073,1.073A1.078,1.078,0,0,0,32.673,23.4Z" transform="translate(-24 -18.115)" fill="#7d7d7d"/>
        <path id="Path_74454" data-name="Path 74454" d="M79.273,23.4a1.073,1.073,0,1,0,1.073,1.073A1.061,1.061,0,0,0,79.273,23.4Z" transform="translate(-58.408 -18.115)" fill="#7d7d7d"/>
      </g>
    </g>
  </g>
</svg>
