

<svg class='share_svg first' xmlns="http://www.w3.org/2000/svg" width="14" height="16" viewBox="0 0 14.857 16.438">
  <g id="_4213454_connections_media_network_share_social_icon" data-name="4213454_connections_media_network_share_social_icon" transform="translate(14.857 16.438) rotate(180)">
    <path id="Path_2654" data-name="Path 2654" d="M12.17,10.906a2.687,2.687,0,1,0-1.928-4.552L5.263,3.461a2.481,2.481,0,0,0,.111-.774,2.7,2.7,0,1,0-.759,1.865L9.594,7.46a2.931,2.931,0,0,0-.111.759,3.16,3.16,0,0,0,.111.774L4.615,11.886a2.683,2.683,0,1,0,.759,1.865,3.159,3.159,0,0,0-.111-.774l4.979-2.908A2.626,2.626,0,0,0,12.17,10.906Zm0-4.109a1.422,1.422,0,1,1-1.422,1.422A1.417,1.417,0,0,1,12.17,6.8ZM2.687,4.109A1.422,1.422,0,1,1,4.109,2.687,1.417,1.417,0,0,1,2.687,4.109Zm0,11.064a1.422,1.422,0,1,1,1.422-1.422A1.417,1.417,0,0,1,2.687,15.173Z" fill="#3e3e3e"/>
  </g>
</svg>
