<svg class="icon icon-instagram" xmlns="http://www.w3.org/2000/svg" width="30" height="30" viewBox="0 0 30 30"><g id="Group_21072" data-name="Group 21072" transform="translate(-91 -336)"> <g id="Ellipse_3175" data-name="Ellipse 3175" transform="translate(91 336)" fill="#fff" stroke="#d4d4d4" stroke-width="1"><circle cx="15" cy="15" r="15" stroke="none"/><circle cx="15" cy="15" r="14.5" fill="none"/> </g> <g id="Group_20822" data-name="Group 20822" transform="translate(100 345)"> <ellipse id="Ellipse_206" data-name="Ellipse 206" cx="1.752" cy="1.752" rx="1.752" ry="1.752" transform="translate(4.643 4.643)" fill="#646464"/><path id="Path_62740" data-name="Path 62740" d="M37.793,28H30.819C28.869,28,28,28.869,28,30.819v6.974c0,1.95.869,2.819,2.819,2.819h6.974c1.95,0,2.819-.869,2.819-2.819V30.819C40.612,28.869,39.743,28,37.793,28Zm-3.487,9.333a3.027,3.027,0,1,1,3.027-3.027A3.027,3.027,0,0,1,34.306,37.333Zm3.279-5.549a.757.757,0,1,1,.757-.757A.757.757,0,0,1,37.585,31.784Z" transform="translate(-28 -28)" fill="#646464"/></g> </g></svg>
