<svg xmlns="http://www.w3.org/2000/svg" width="50" height="49" viewBox="0 0 50 49">
  <g id="Group_21128" data-name="Group 21128" transform="translate(-1258 -1384)">
    <g id="Ellipse_3214" data-name="Ellipse 3214" transform="translate(1258 1384)" fill="#fff" stroke="#bbb" stroke-width="1.5">
      <ellipse cx="25" cy="24.5" rx="25" ry="24.5" stroke="none"/>
      <ellipse cx="25" cy="24.5" rx="24.25" ry="23.75" fill="none"/>
    </g>
    <g id="noun-return-3844902" transform="translate(1270 1398)">
      <path id="Path_74455" data-name="Path 74455" d="M347.643,288.688v2.718a3.646,3.646,0,0,1-3.65,3.646h-5.407v1.287h0a.412.412,0,0,1-.239.367.372.372,0,0,1-.173.045.411.411,0,0,1-.268-.1l-4.273-3.58a.413.413,0,0,1-.14-.219.694.694,0,0,1,0-.087.413.413,0,0,1,.153-.318l4.256-3.576a.827.827,0,0,1,.132-.074.38.38,0,0,1,.149-.029h.087l.083.029.045.025a.219.219,0,0,1,.049.041.177.177,0,0,1,.041.037.349.349,0,0,1,.091.157.612.612,0,0,1,0,.115v1.287h3.856a2.388,2.388,0,0,0,1.848-.771,1.489,1.489,0,0,0,.445-1.068v-3.5a3.642,3.642,0,0,1,2.916,3.567Z" transform="translate(-321.081 -275.692)" fill="#df2e84"/>
      <path id="Path_74456" data-name="Path 74456" d="M113.184,51.28h-7.028v7.456a.412.412,0,0,1-.263.383.379.379,0,0,1-.148.029.412.412,0,0,1-.3-.136l-2.026-2.248-2.022,2.248a.414.414,0,0,1-.72-.276V51.28H93.649A1.648,1.648,0,0,0,92,52.93V67.622a1.648,1.648,0,0,0,1.647,1.65h10.017a1.289,1.289,0,0,1-.066-.412,1.238,1.238,0,0,1,.445-.957l4.261-3.58h0a1.258,1.258,0,0,1,.8-.289,1.234,1.234,0,0,1,.515.111,1.267,1.267,0,0,1,.72,1.126v.462h3.055a1.484,1.484,0,0,0,1.437-1.5v-11.3a1.648,1.648,0,0,0-1.647-1.65Zm-14,15.517h-4.3a.412.412,0,0,1,0-.825H99.17a.412.412,0,0,1,0,.825Zm0-3.3h-4.3a.412.412,0,0,1,0-.825H99.17a.412.412,0,0,1,0,.825Z" transform="translate(-92.002 -51.28)" fill="#7d7d7d"/>
    </g>
  </g>
</svg>
