<svg xmlns="http://www.w3.org/2000/svg" width="50" height="49" viewBox="0 0 50 49"> <g id="Group_21129" data-name="Group 21129" transform="translate(-1105 -1384)"> <g id="Ellipse_3213" data-name="Ellipse 3213" transform="translate(1105 1384)" fill="#fff" stroke="#bbb" stroke-width="1.5"><ellipse cx="25" cy="24.5" rx="25" ry="24.5" stroke="none"/><ellipse cx="25" cy="24.5" rx="24.25" ry="23.75" fill="none"/></g><g id="noun-shipping-5295381" transform="translate(1116 1399)"><path id="Path_74445" data-name="Path 74445" d="M87.281,109.155a2.325,2.325,0,1,1-2.318,2.325A2.322,2.322,0,0,1,87.281,109.155Zm15.763,0a2.325,2.325,0,1,1-2.318,2.325,2.322,2.322,0,0,1,2.318-2.325Zm-15.763,1.329a1,1,0,1,0,.993,1A.994.994,0,0,0,87.281,110.484Zm15.763,0a1,1,0,1,0,.993,1A.994.994,0,0,0,103.044,110.484Zm-3.3,1a3.3,3.3,0,1,1,6.6,0h2.441V103.7h-7.2a.491.491,0,0,1-.49-.491V96.988H99.672V111.48h.074Zm2.327-8.765V96.988h.892a1.682,1.682,0,0,1,1.284.567l4.078,4.474a1.7,1.7,0,0,1,.389.686h-6.643Zm-3.379,4.143H80.383v2.879a1.745,1.745,0,0,0,1.739,1.744h1.861a3.3,3.3,0,1,1,6.6,0h8.115v-4.623Zm-18.311-.982h18.31V95.917a1.745,1.745,0,0,0-1.739-1.744H82.122a1.745,1.745,0,0,0-1.739,1.744Zm6.508-6.266a.489.489,0,0,1-.49-.848l3.613-2.092a.49.49,0,0,1,.49.848Zm2.169,3.772a.489.489,0,0,1-.486-.848l3.613-2.092a.489.489,0,0,1,.486.848Zm-2.972-.792a.49.49,0,0,1-.49-.848l7.39-4.279a.489.489,0,0,1,.49.848Z" transform="translate(-80.383 -94.173)" fill="#7d7d7d" fill-rule="evenodd"/><path id="Path_74889" data-name="Path 74889" d="M80.383,105.875h18.31V95.917a1.745,1.745,0,0,0-1.739-1.744H82.122a1.745,1.745,0,0,0-1.739,1.744Zm6.508-6.266a.489.489,0,0,1-.49-.848l3.613-2.092a.49.49,0,0,1,.49.848Zm2.169,3.772a.489.489,0,0,1-.486-.848l3.613-2.092a.489.489,0,0,1,.486.848Zm-2.972-.792a.49.49,0,0,1-.49-.848l7.39-4.279a.489.489,0,0,1,.49.848Z" transform="translate(-80.383 -94.173)" fill="#df2e84" fill-rule="evenodd"/></g></g></svg>
