<svg xmlns="http://www.w3.org/2000/svg" width="15.673" height="19.705" viewBox="0 0 15.673 19.705">
  <g id="layer1" transform="translate(-2.146 -280.626)">
    <path id="path13621" d="M7.526,286.168a.26.26,0,0,0-.221.176L6.786,287.9a.26.26,0,0,0-.013.083v.778a1.038,1.038,0,0,0,.519.894v3a.26.26,0,0,0,.259.261h5.194a.26.26,0,0,0,.259-.261v-3a1.038,1.038,0,0,0,.519-.894v-.778h0a.26.26,0,0,0-.013-.083l-.52-1.558a.26.26,0,0,0-.245-.176c-1.74,0-3.479,0-5.219,0Zm5.031.519.347,1.039Zm-5.264,1.556H8.331v.519a.519.519,0,1,1-1.038,0Zm1.558,0H9.887v.519a.518.518,0,1,1-1.036,0Zm1.556,0h1.039v.519a.52.52,0,1,1-1.039,0Zm1.558,0H13v.519a.52.52,0,1,1-1.039,0Zm-3.374,1.2a1.021,1.021,0,0,0,1.557,0,1.022,1.022,0,0,0,1.558,0,1.033,1.033,0,0,0,.779.361v2.6h-1.3v-1.251a.26.26,0,0,0-.261-.261H9.37a.26.26,0,0,0-.261.261V292.4h-1.3v-2.6a1.033,1.033,0,0,0,.779-.361Zm2.077,2.957h0Z" transform="translate(-0.165 -0.414)" fill="#1a1a1a"/>
    <path id="path13621-2" data-name="path13621" d="M9.983,281.126a7.34,7.34,0,0,0-7.336,7.336c0,2.657,1.806,5.44,3.577,7.59a32.852,32.852,0,0,0,3.543,3.668.334.334,0,0,0,.433,0,32.841,32.841,0,0,0,3.543-3.668c1.771-2.151,3.577-4.933,3.577-7.59a7.34,7.34,0,0,0-7.336-7.336Zm0,.667a6.663,6.663,0,0,1,6.669,6.669c0,2.346-1.694,5.066-3.424,7.167a28.136,28.136,0,0,1-3.245,3.36,28.158,28.158,0,0,1-3.244-3.36c-1.73-2.1-3.424-4.821-3.424-7.167A6.663,6.663,0,0,1,9.983,281.793Z" transform="translate(0 0)" fill="#1a1a1a" stroke="#1a1a1a" stroke-width="1"/>
  </g>
</svg>
